<svg width="166" height="39" xmlns="http://www.w3.org/2000/svg" fill="none">

 <g class="currentLayer">
  <title>Layer 1</title>
  <path id="svg_11" stroke-width="1.2861" stroke="#DFAB82" d="m8.79914,0.64305l-8.15609,8.15609l-0.00001,29.14086l29.14086,0l8.1561,-8.1561l0,-29.14085l-29.14086,0z"/>
  <path id="svg_12" fill="#DFAB82" d="m17.0294,14.5035c0,0.542 0.1436,1.0238 0.4309,1.4454c0.3033,0.4216 0.6704,0.7905 1.1013,1.1067c0.431,0.3162 1.0135,0.7001 1.7477,1.1518c0.7981,0.4818 1.4365,0.9034 1.9153,1.2647c0.4789,0.3614 0.8859,0.8056 1.221,1.3325c0.3352,0.512 0.5028,1.1067 0.5028,1.7842c0,0.783 -0.2235,1.4831 -0.6704,2.1004c-0.4469,0.6023 -1.0693,1.0766 -1.8674,1.4229c-0.7821,0.3312 -1.6599,0.4968 -2.6335,0.4968c-0.7182,0 -1.4684,-0.0903 -2.2505,-0.271c-0.7821,-0.1957 -1.3088,-0.4065 -1.5801,-0.6324c-0.0798,-0.0602 -0.1437,-0.1129 -0.1915,-0.1581c-0.032,-0.0602 -0.0479,-0.1505 -0.0479,-0.271l-0.0718,-3.5909l0,-0.0226c0,-0.0603 0.0399,-0.0904 0.1197,-0.0904c0.0798,-0.015 0.1276,0.0076 0.1436,0.0678c0.4788,0.9184 0.8938,1.6637 1.245,2.2359c0.3671,0.5721 0.8219,1.0765 1.3646,1.5132c0.5586,0.4366 1.1891,0.6549 1.8914,0.6549c0.6384,0 1.1651,-0.1581 1.5801,-0.4743c0.415,-0.3312 0.6225,-0.8883 0.6225,-1.6712c0,-0.6625 -0.1597,-1.2422 -0.4789,-1.7391c-0.3032,-0.4968 -0.6783,-0.9184 -1.1252,-1.2647c-0.4469,-0.3463 -1.0614,-0.7604 -1.8435,-1.2422c-0.7661,-0.4667 -1.3646,-0.8657 -1.7956,-1.197c-0.415,-0.3312 -0.7741,-0.7302 -1.0773,-1.197c-0.3033,-0.4667 -0.4549,-1.0163 -0.4549,-1.6487c0,-0.7979 0.2394,-1.468 0.7182,-2.01c0.4948,-0.5571 1.1253,-0.9636 1.8914,-1.2196c0.7661,-0.271 1.5721,-0.4065 2.418,-0.4065c0.5587,0 1.1253,0.0527 1.6999,0.1581c0.5746,0.0903 1.0374,0.2033 1.3886,0.3388c0.1436,0.0602 0.2394,0.1279 0.2873,0.2032c0.0478,0.0603 0.0718,0.1431 0.0718,0.2485l0,3.3199c0,0.0452 -0.0399,0.0828 -0.1197,0.1129c-0.0798,0.0151 -0.1277,0 -0.1437,-0.0451l-0.1915,-0.4291c-0.399,-0.9486 -0.8699,-1.7541 -1.4125,-2.4166c-0.5267,-0.6625 -1.2689,-0.9937 -2.2266,-0.9937c-0.6384,0 -1.1651,0.1731 -1.5801,0.5194c-0.399,0.3463 -0.5985,0.8507 -0.5985,1.5132z"/>
 </g>
 <g>
  <title>Layer 2</title>
  <rect fill="none" y="0" x="0" height="100%" width="100%" id="backgroundrect"/>
  <text transform="matrix(1 0 0 1.32805 1 -8.08127)" stroke="null" font-style="normal" font-weight="normal" xml:space="preserve" text-anchor="start" font-family="serif" font-size="18" stroke-width="0" id="svg_3" y="26.77202" x="40.92969" fill="#ffffff">Shubham Poddar</text>
 </g>
</svg>